<?xml version="1.0" standalone="no"?>
<!DOCTYPE svg PUBLIC "-//W3C//DTD SVG 20010904//EN"
 "http://www.w3.org/TR/2001/REC-SVG-20010904/DTD/svg10.dtd">
<svg version="1.0" xmlns="http://www.w3.org/2000/svg"
 width="512.000000pt" height="512.000000pt" viewBox="0 0 512.000000 512.000000"
 preserveAspectRatio="xMidYMid meet">
<metadata>
Created by potrace 1.14, written by Peter Selinger 2001-2017
</metadata>
<g transform="translate(0.000000,512.000000) scale(0.100000,-0.100000)"
fill="#000000" stroke="none">
<path d="M2488 4905 c-2 -1 -36 -6 -76 -9 -207 -19 -440 -113 -622 -250 -332
-250 -515 -631 -505 -1051 2 -77 6 -151 9 -165 4 -14 9 -40 12 -59 3 -19 10
-46 16 -60 5 -14 9 -26 8 -26 -5 0 30 -107 46 -142 71 -161 129 -254 232 -369
38 -44 92 -97 120 -119 28 -22 51 -42 52 -45 0 -3 -32 -21 -72 -40 -99 -48
-223 -127 -326 -207 -78 -61 -235 -211 -287 -274 -230 -280 -365 -572 -431
-934 -25 -135 -30 -551 -8 -625 47 -160 175 -279 330 -308 31 -5 678 -8 1600
-7 1470 1 1552 2 1599 19 141 51 238 154 279 296 14 46 16 94 12 300 -5 251
-7 274 -32 395 -8 39 -17 79 -19 90 -3 11 -15 56 -29 100 -146 489 -496 908
-954 1144 l-103 52 43 35 c215 177 373 444 434 734 25 121 25 371 0 490 -20
92 -28 127 -36 145 -4 11 -20 51 -35 89 -100 262 -318 507 -575 648 -48 26
-192 87 -219 93 -9 2 -44 11 -78 20 -71 18 -84 21 -145 30 -44 6 -235 14 -240
10z m267 -448 c231 -58 423 -199 538 -395 197 -336 143 -768 -130 -1038 -302
-298 -777 -332 -1113 -81 -177 132 -284 310 -336 562 -9 41 -5 216 6 275 21
118 74 240 147 343 124 176 321 301 538 342 87 16 269 12 350 -8z m-5 -2122
c230 -30 456 -117 660 -253 93 -62 284 -245 347 -332 167 -231 259 -468 289
-745 8 -67 12 -333 6 -352 -3 -10 -311 -13 -1493 -13 -1411 0 -1489 1 -1490
18 -8 120 6 386 26 482 67 332 260 652 515 859 25 20 47 39 50 42 12 15 181
120 245 152 119 59 297 116 420 134 112 16 149 19 255 17 63 -1 140 -5 170 -9z"/>
</g>
</svg>
